# xmcd CD database file
#
# Track frame offsets:
#	150
#	13397
#	25231
#	34878
#	48180
#	62182
#	76346
#	89046
#	103943
#	117458
#	131229
#	146467
#	159842
#	169895
#
# Disc length: 2594 seconds
#
# Revision: 5
# Processed by: cddbd v1.4PL0 Copyright (c) Steve Scherf et al.
# Submitted via: CDex 1.50Beta5
#
DISCID=c50a200e
DTITLE=United States Air Force Band of the Rockies Falconaires - String Of Pearls
DYEAR=1999
DGENRE=Jazz
TTITLE0=String Of Pearls
TTITLE1=Sun Valley Jump
TTITLE2=Moonlight Serenade
TTITLE3=Shh, It's A Military Secret
TTITLE4=Don't Set Under The Appletree
TTITLE5=Sunrise Serenade
TTITLE6=Elmer's Tune
TTITLE7=Indian Summer
TTITLE8=When Johnny Comes Marching Home
TTITLE9=Tuxedo Junction
TTITLE10=In The Mood
TTITLE11=I Know Why And So Do You
TTITLE12=Chattanooga Choo-Choo
TTITLE13=Anvil Chorus
EXTD=YEAR: 1999
EXTT0=
EXTT1=
EXTT2=
EXTT3=
EXTT4=
EXTT5=
EXTT6=
EXTT7=
EXTT8=
EXTT9=
EXTT10=
EXTT11=
EXTT12=
EXTT13=
PLAYORDER=
